<mxfile host="app.diagrams.net" modified="2023-10-04T04:16:32.272Z" agent="Mozilla/5.0 (Macintosh; Intel Mac OS X 10_15_7) AppleWebKit/537.36 (KHTML, like Gecko) Chrome/117.0.0.0 Safari/537.36" version="22.0.2" etag="k-1DrF0Z8J_rklPSHjIU" type="github">
  <diagram name="Halaman-1" id="MdturNbdsKM9qP9_5yXA">
    <mxGraphModel>
      <root>
        <mxCell id="0" />
        <mxCell id="1" parent="0" />
      </root>
    </mxGraphModel>
  </diagram>
</mxfile>
